<mxfile host="app.diagrams.net" modified="2022-12-08T15:19:19.192Z" agent="5.0 (Windows NT 10.0; Win64; x64) AppleWebKit/537.36 (KHTML, like Gecko) Chrome/108.0.0.0 Safari/537.36" etag="-xt3xRFNfpjU4BdKTWNV" version="20.6.1" type="github">
  <diagram id="C5RBs43oDa-KdzZeNtuy" name="Page-1">
    <mxGraphModel dx="975" dy="518" grid="1" gridSize="10" guides="1" tooltips="1" connect="1" arrows="1" fold="1" page="1" pageScale="1" pageWidth="827" pageHeight="1169" math="0" shadow="0">
      <root>
        <mxCell id="WIyWlLk6GJQsqaUBKTNV-0" />
        <mxCell id="WIyWlLk6GJQsqaUBKTNV-1" parent="WIyWlLk6GJQsqaUBKTNV-0" />
        <mxCell id="-p10ACKIXbucfh0nDH9j-0" value="Map" style="swimlane;fontStyle=1;align=center;verticalAlign=top;childLayout=stackLayout;horizontal=1;startSize=26;horizontalStack=0;resizeParent=1;resizeParentMax=0;resizeLast=0;collapsible=1;marginBottom=0;fontSize=14;" vertex="1" parent="WIyWlLk6GJQsqaUBKTNV-1">
          <mxGeometry x="280" y="220" width="540" height="350" as="geometry" />
        </mxCell>
        <mxCell id="-p10ACKIXbucfh0nDH9j-1" value="+ map_index  当前关卡的索引&#xa;+ end_map_index  结束关卡的索引&#xa;+ enemy_index  当前关卡的当前敌人波数的索引&#xa;+ end_enemy_index  结束关卡的敌人波数的索引&#xa;+ group_lst  当前关卡的Sprite.Group()的列表&#xa;+ screen  屏幕&#xa;+ born_time  敌人生成计时器&#xa;+ food_time  食物生成计时器&#xa;+ during_born  敌人是否正在生成（用于判断玩家是否位于正在生成的敌人出生点上）" style="text;strokeColor=none;fillColor=none;align=left;verticalAlign=top;spacingLeft=4;spacingRight=4;overflow=hidden;rotatable=0;points=[[0,0.5],[1,0.5]];portConstraint=eastwest;fontSize=14;fontStyle=1" vertex="1" parent="-p10ACKIXbucfh0nDH9j-0">
          <mxGeometry y="26" width="540" height="164" as="geometry" />
        </mxCell>
        <mxCell id="-p10ACKIXbucfh0nDH9j-2" value="" style="line;strokeWidth=1;fillColor=none;align=left;verticalAlign=middle;spacingTop=-1;spacingLeft=3;spacingRight=3;rotatable=0;labelPosition=right;points=[];portConstraint=eastwest;strokeColor=inherit;" vertex="1" parent="-p10ACKIXbucfh0nDH9j-0">
          <mxGeometry y="190" width="540" height="8" as="geometry" />
        </mxCell>
        <mxCell id="-p10ACKIXbucfh0nDH9j-3" value="+ select_level()  选择关卡&#xa;+ update()  动态墙类以及特效的更新&#xa;+ show()  地图显示&#xa;+ prompt_show()  提示区显示&#xa;+ next_iterator()  下一关卡&#xa;+ replay_stage()  重新开始当前关卡&#xa;+ enemy_born()  生成敌人&#xa;+ food_born()  生成食物&#xa;" style="text;strokeColor=none;fillColor=none;align=left;verticalAlign=top;spacingLeft=4;spacingRight=4;overflow=hidden;rotatable=0;points=[[0,0.5],[1,0.5]];portConstraint=eastwest;fontSize=14;fontStyle=1" vertex="1" parent="-p10ACKIXbucfh0nDH9j-0">
          <mxGeometry y="198" width="540" height="152" as="geometry" />
        </mxCell>
      </root>
    </mxGraphModel>
  </diagram>
</mxfile>
